# xmcd
#
# Track frame offsets: 
#        150
#        13020
#        29415
#        46805
#        60882
#        73517
#        83465
#        94930
#        109022
#        122137
#
# Disc length: 1813 seconds
#
# Revision: 0
# Processed by: cddbd v1.5.2PL0 Copyright (c) Steve Scherf et al.
# Submitted via: ExactAudioCopy v0.99pb5
#
DISCID=7307130a
DTITLE=Tom Bråthen - From Norway To Nashville
DYEAR=2000
DGENRE=Country
TTITLE0=Cool Joe Cool
TTITLE1=You'll Always Have A Home
TTITLE2=He Thought She Always Knew
TTITLE3=Jump Back Jenny
TTITLE4=It's Time To Say Goodbye
TTITLE5=If Our Camper's Rockin'
TTITLE6=It's Closing Time
TTITLE7=Do I Love You Like I Should
TTITLE8=I Can't Get High Enough
TTITLE9=Anything A Stranger Can Do
EXTD=
EXTT0=
EXTT1=
EXTT2=
EXTT3=
EXTT4=
EXTT5=
EXTT6=
EXTT7=
EXTT8=
EXTT9=
PLAYORDER=
